<svg width="102" height="74" viewBox="0 0 102 74" fill="none" xmlns="http://www.w3.org/2000/svg">
<g clip-path="url(#clip0_115_35266)">
<rect width="102" height="74" fill="#F3F3F3"/>
<rect x="-8.97656" y="41.9331" width="125.664" height="18.9111" fill="url(#paint0_linear_115_35266)"/>
<path d="M-32.0586 37.0472V155.35H50.9344H133.927V37.0472V-81.2552H50.9344H-32.0586V37.0472ZM50.834 6.5611C51.0014 8.39566 51.1286 27.3686 50.9813 27.8474C50.8273 28.3465 50.5662 28.6433 50.4188 28.4949C50.3184 28.3938 50.1778 27.4562 50.1041 26.4041C50.0037 24.9472 50.0171 17.8046 50.1309 12.0243C50.1845 9.33318 50.2314 6.74995 50.2314 6.27782V5.42123L50.4188 5.401C50.5728 5.38077 50.613 5.41449 50.6867 5.61684C50.7335 5.74498 50.8005 6.16991 50.834 6.5611ZM48.2494 7.60652C48.3231 7.81561 48.4838 8.92175 48.5842 9.93346C48.7181 11.2891 48.7985 12.5302 48.9592 15.8688C49.0328 17.3729 49.1668 19.4637 49.2538 20.5227C49.6154 24.7516 49.7627 27.5372 49.6488 28.1442C49.602 28.387 49.5618 28.4545 49.4346 28.4679C49.1735 28.5084 48.986 28.4275 48.8989 28.2319C48.7516 27.9081 48.3633 22.7687 47.8544 14.3175C47.7941 13.3733 47.7004 12.112 47.6468 11.5185C47.4995 10.0346 47.5397 8.4631 47.7272 8.04494C47.9414 7.57954 48.1624 7.3907 48.2494 7.60652ZM53.298 7.9505C53.5123 8.73289 53.4721 12.3885 53.2109 16.5433C52.9766 20.1584 52.3941 27.065 52.2334 27.9958C52.1396 28.5421 52.0861 28.6163 51.7982 28.6163H51.5705V27.3011C51.5705 25.2642 51.7982 21.2241 52.374 12.9753C52.5213 10.8777 52.6418 9.03641 52.6418 8.88129C52.6418 8.24727 52.9163 7.51884 53.1373 7.59303C53.1775 7.60652 53.2511 7.7684 53.298 7.9505ZM45.7118 9.94695C45.993 10.0751 46.0934 10.3584 46.1537 11.2082C46.2407 12.3211 46.5554 14.8166 47.0509 18.3306C48.2227 26.5997 48.3767 28.0835 48.1088 28.4005C47.9281 28.6028 47.5732 28.4814 47.4527 28.1847C47.2317 27.6586 45.8993 18.135 45.4774 14.0477C45.3301 12.6448 45.2297 10.3381 45.3033 10.0414C45.3502 9.84578 45.4507 9.82555 45.7118 9.94695ZM55.7955 10.1493C55.9026 10.5472 55.829 12.719 55.6549 14.3512C55.4473 16.314 55.0924 19.0456 54.617 22.2763C54.3827 23.8883 54.1416 25.7094 54.0814 26.3231C53.9006 28.2116 53.8002 28.4207 53.077 28.4949L52.8762 28.5152L52.8962 27.9419C52.9431 26.6401 53.1574 24.8325 53.7131 21.1297C53.9876 19.3019 54.7911 13.1979 55.0456 11.0666C55.1192 10.4326 55.233 10.1358 55.4674 9.97392C55.6817 9.8188 55.7084 9.83229 55.7955 10.1493ZM43.6964 12.3413C43.7968 12.692 46.2809 25.5542 46.4148 26.458C46.6157 27.7463 46.5822 28.6163 46.3278 28.6163C46.0533 28.6163 45.752 27.5169 44.6137 22.31C44.0044 19.511 43.4286 16.3949 43.2344 14.7897C43.1206 13.8387 43.1005 12.456 43.2009 12.1929C43.2612 12.0243 43.2746 12.0243 43.462 12.1255C43.5692 12.1794 43.6763 12.2806 43.6964 12.3413ZM58.0385 12.3413C58.2059 13.4609 57.6569 16.9412 56.3311 23.2273C56.1437 24.1041 55.916 25.271 55.829 25.824C55.5678 27.3618 55.3335 28.0161 54.9184 28.3735L54.7041 28.5489L54.5367 28.3061C54.4028 28.1037 54.3827 28.0295 54.443 27.8812C54.4764 27.7867 54.9518 25.3654 55.4875 22.5124C56.5186 17.0424 57.4426 12.2536 57.4962 12.1053C57.5096 12.0648 57.6301 12.0243 57.7573 12.0243C57.985 12.0243 57.9917 12.0311 58.0385 12.3413ZM29.4346 12.9956C30.0171 13.2384 30.5394 13.9331 31.2223 15.3562C31.4701 15.8823 33.077 19.0523 34.7911 22.4112C36.5052 25.7701 37.9113 28.5286 37.9113 28.5421C37.9113 28.5556 37.7372 28.5489 37.5297 28.5354C37.1882 28.5084 37.1279 28.4747 36.9337 28.2454C36.5186 27.7463 35.4272 25.8173 33.7935 22.681C32.3003 19.8347 29.5886 14.3108 29.0998 13.1372C29.0127 12.9281 29.0127 12.9011 29.1065 12.9011C29.1667 12.9011 29.314 12.9416 29.4346 12.9956ZM72.1263 12.9686C72.1263 13.1507 71.7245 14.068 71.1755 15.1269C70.8407 15.7744 70.1242 17.1705 69.5819 18.2295C69.0395 19.2884 68.3298 20.6643 67.995 21.2983C67.6602 21.9256 66.8568 23.4903 66.2006 24.7718C64.8949 27.3213 64.694 27.6653 64.2722 28.0565C63.991 28.3128 63.442 28.5893 63.2946 28.5421C63.1741 28.4949 63.6495 27.4562 64.4664 25.9657C65.2029 24.6302 68.6646 17.9125 69.8631 15.4978C70.4657 14.2838 70.8608 13.6498 71.2023 13.3193C71.5103 13.0293 72.1263 12.7932 72.1263 12.9686ZM41.6207 14.3445C41.6743 14.5334 42.3104 17.0087 43.0335 19.8482C43.7566 22.6877 44.4798 25.4328 44.6405 25.9522C45.0087 27.1257 45.0824 27.4495 45.0891 27.9688C45.0958 28.5354 45.0489 28.6703 44.8413 28.6298C44.5601 28.5759 44.3526 28.3196 44.212 27.8339C44.1316 27.5776 43.8303 26.5457 43.5357 25.5475C42.3974 21.7165 41.4466 17.9866 41.1252 16.1049C40.9913 15.309 40.9244 14.1422 41.0114 14.0073C41.0315 13.9668 41.1587 13.9533 41.2859 13.9668C41.5069 13.9938 41.527 14.0208 41.6207 14.3445ZM60.1544 14.331C60.2816 15.1943 59.5919 18.4183 58.139 23.7264C57.8511 24.7988 57.5029 26.1275 57.369 26.6738C57.2418 27.2202 57.0744 27.7867 57.0007 27.9351C56.753 28.4207 56.2575 28.6568 56.1571 28.3398C56.0164 27.9014 56.4717 25.7835 57.456 22.31C57.677 21.5276 58.0653 20.091 58.3265 19.1063C58.755 17.4673 59.3643 15.3562 59.5384 14.8841C59.6187 14.675 60.0138 14.1219 60.0807 14.1152C60.1075 14.1152 60.141 14.2096 60.1544 14.331ZM33.0168 14.4524C33.5658 14.729 33.8738 15.2146 34.8849 17.3864C37.4895 22.9845 39.7191 28.0633 39.7191 28.414C39.7191 28.5691 39.1902 28.4477 38.9692 28.2319C38.4135 27.7058 32.6217 15.0594 32.6217 14.3782C32.6217 14.2838 32.7355 14.304 33.0168 14.4524ZM68.5106 14.4187C68.5106 14.6143 68.0486 15.7676 67.4995 16.9547C67.2049 17.6022 66.2207 19.7673 65.3167 21.7704C62.6117 27.7665 62.4108 28.1442 61.835 28.3938C61.5069 28.5286 61.3931 28.5084 61.4466 28.3263C61.7747 27.1999 64.9351 20.091 66.9438 15.9632C67.3388 15.1471 67.7138 14.6548 68.1021 14.4524C68.3968 14.2973 68.5106 14.2838 68.5106 14.4187ZM36.6525 15.9632C36.9672 16.2735 37.2417 16.7659 37.5297 17.555C37.6636 17.9057 38.293 19.5177 38.9358 21.1297C40.5829 25.271 41.3864 27.5574 41.5002 28.4275C41.5471 28.758 41.5404 28.7647 41.3998 28.6905C41.0382 28.4882 40.2816 27.1797 39.5183 25.4126C39.0295 24.2795 38.3064 22.4247 37.5096 20.2529C37.1413 19.2344 36.6793 18.0001 36.4985 17.5213C36.1436 16.6107 36.0767 16.1723 36.2307 15.8823C36.3378 15.6867 36.378 15.6935 36.6525 15.9632ZM64.9619 15.9632C65.0288 16.1656 65.0021 16.2937 64.7543 17.0626C64.3727 18.2564 63.462 20.6845 62.2501 23.7601C61.0583 26.7818 60.6632 27.726 60.4557 28.043C60.2816 28.3196 59.9803 28.4814 59.6522 28.4814H59.4112L59.5451 28.0026C59.7392 27.2944 60.1945 26.0601 60.844 24.4683C61.8417 22.0402 63.2946 18.4183 63.4687 17.9259C63.7767 17.0626 64.1584 16.3409 64.4664 16.0307C64.6271 15.8688 64.7878 15.7339 64.8213 15.7339C64.8547 15.7339 64.9217 15.8351 64.9619 15.9632ZM39.371 15.9228C39.4446 15.997 40.0071 17.5685 40.6766 19.5851C41.3194 21.5276 42.0626 23.7399 42.3238 24.502C42.8862 26.1478 43.2478 27.4562 43.308 28.0633L43.3549 28.5017L43.1005 28.4612C42.8259 28.414 42.6318 28.2723 42.4912 28.0026C42.3305 27.6788 41.1855 24.4953 40.6164 22.7687C39.5317 19.4907 38.9826 17.3189 38.9826 16.314C38.9826 15.8486 38.996 15.8014 39.1165 15.8014C39.1902 15.8014 39.304 15.8553 39.371 15.9228ZM62.1832 16.0914C62.23 16.2735 62.0626 17.3661 61.8752 18.1283C61.1855 20.8869 58.7885 28.0295 58.4604 28.2993C58.1055 28.5893 57.7975 28.5286 57.7975 28.1712C57.7975 27.9149 61.3194 17.0694 61.5605 16.577C61.7011 16.3005 62.0024 15.9362 62.0961 15.9362C62.1229 15.9362 62.1631 16.0037 62.1832 16.0914ZM42.3639 32.5148C44.2186 33.3916 44.2722 35.9883 42.451 36.9865C42.0425 37.2091 42.0024 37.2158 41.2926 37.2158C40.6365 37.2158 40.5159 37.1956 40.1745 37.0337C39.7124 36.8179 39.2571 36.3728 39.0027 35.8871C38.8286 35.5566 38.8152 35.469 38.8152 34.7878C38.8152 34.0863 38.8286 34.0256 39.0295 33.6411C39.3576 33.0004 39.9803 32.4945 40.6365 32.3259C41.1118 32.2045 41.8819 32.2922 42.3639 32.5148ZM54.6773 32.3327C54.8246 32.3731 55.0523 32.5283 55.2397 32.7104L55.5477 33.0206L55.3536 33.1758L55.1594 33.3309L54.8782 33.0746C54.7309 32.9262 54.5099 32.7913 54.3961 32.7711C54.1015 32.7036 53.7533 32.8722 53.6529 33.1285C53.4922 33.5062 53.673 33.83 54.309 34.3021C55.2531 35.0036 55.5879 35.4555 55.5879 36.022C55.5879 36.9663 54.4831 37.5598 53.5792 37.0944C53.3181 36.9663 52.8427 36.4537 52.8427 36.3053C52.8427 36.2783 52.923 36.2041 53.0168 36.1367C53.1909 36.022 53.1976 36.022 53.2645 36.1434C53.3917 36.3862 53.8336 36.7572 54.0345 36.7977C54.6706 36.9258 55.2598 36.3053 55.0322 35.7522C54.9117 35.4757 54.6773 35.2194 54.0814 34.7405C53.8203 34.5382 53.5123 34.2549 53.3984 34.1268C52.9029 33.5602 53.077 32.6901 53.7399 32.3866C54.0546 32.245 54.309 32.2315 54.6773 32.3327ZM58.0519 32.3596C58.2997 32.4676 58.8018 32.906 58.8018 33.0206C58.8018 33.0544 58.7349 33.1353 58.6545 33.2027C58.5005 33.3241 58.5005 33.3241 58.2193 33.0678C57.8845 32.7508 57.5698 32.6699 57.2752 32.825C57.0275 32.9532 56.9271 33.1218 56.9271 33.3848C56.9271 33.6681 57.1145 33.8974 57.6703 34.3224C57.9448 34.5314 58.2662 34.8012 58.3934 34.9159C58.6612 35.1655 58.9358 35.7185 58.9358 36.0018C58.9291 36.5009 58.4269 37.1349 57.9649 37.2226C57.2618 37.3507 56.7396 37.1417 56.3177 36.5549L56.1236 36.2851L56.3044 36.1637L56.4918 36.0423L56.7797 36.3728C57.1614 36.8112 57.4694 36.9056 57.8912 36.7167C58.3465 36.5144 58.5206 36.0625 58.3064 35.6443C58.1925 35.4285 57.8778 35.125 57.1882 34.5652C56.6124 34.0998 56.4584 33.8435 56.4584 33.3511C56.4584 32.9262 56.6592 32.6159 57.061 32.4069C57.4091 32.2315 57.7038 32.218 58.0519 32.3596ZM46.917 32.4676C47.6602 32.6025 48.2227 33.0206 48.5374 33.6614C48.6847 33.9649 48.7248 34.1537 48.7449 34.6596C48.7784 35.415 48.6579 35.8669 48.303 36.339C47.8075 36.9865 47.1915 37.1754 45.598 37.1821H44.7409V34.7878V32.3934H45.6314C46.1202 32.3934 46.7027 32.4271 46.917 32.4676ZM52.4409 32.6294V32.8655H51.3362H50.2314V33.6074V34.3493H51.3362H52.4409V34.5854V34.8215H51.3362H50.2314V35.7657V36.71H51.3362H52.4409V36.9461V37.1821L51.0884 37.1686L49.7292 37.1484L49.7091 34.7675L49.6957 32.3934H51.0683H52.4409V32.6294ZM63.0067 34.7405C63.6027 36.0288 64.0914 37.1012 64.0914 37.1282C64.0914 37.1619 63.9843 37.1821 63.8571 37.1821C63.6294 37.1821 63.6227 37.1754 63.2478 36.3728L62.8661 35.5634H61.835H60.8039L60.4289 36.3728L60.0472 37.1821H59.7861C59.6455 37.1821 59.5384 37.1551 59.5518 37.1214C59.6991 36.6965 61.7948 32.3934 61.8417 32.3934C61.8819 32.3934 62.4041 33.4523 63.0067 34.7405ZM64.7945 44.3652C66.3479 44.6418 67.6134 45.5118 68.2093 46.7259C68.5775 47.4881 68.6244 47.4274 67.2652 48.0883C66.6224 48.3986 66.0801 48.6481 66.0734 48.6347C66.0667 48.6279 65.9595 48.4593 65.839 48.2637C65.5511 47.7916 65.0355 47.3262 64.5735 47.1104C64.2387 46.9485 64.1115 46.9282 63.4888 46.9282C62.8527 46.9282 62.7456 46.9485 62.4041 47.1171C61.6676 47.4813 61.0918 48.1423 60.8039 48.9584C60.5963 49.5317 60.5963 50.5367 60.8039 51.1369C61.1922 52.2566 61.9488 52.9041 63.1072 53.1064C64.1316 53.2818 64.6204 53.0794 65.5377 52.1082L66.214 51.3932L67.3991 51.9531C68.0486 52.2633 68.5775 52.5466 68.5775 52.5871C68.5775 52.7287 68.0486 53.6055 67.7607 53.9562C67.138 54.7049 66.0801 55.3726 65.0958 55.6289C64.5066 55.7773 63.308 55.8313 62.692 55.7368C60.7235 55.4266 59.0429 54.2125 58.2662 52.5533C57.8912 51.744 57.7774 51.1572 57.7774 50.0308C57.7774 48.8235 57.8979 48.2839 58.3733 47.2992C58.6345 46.7664 58.7885 46.564 59.2973 46.0447C59.9803 45.3567 60.5561 44.979 61.4065 44.6688C62.4711 44.2776 63.6696 44.1697 64.7945 44.3652ZM94.7242 44.399C96.5923 44.6148 97.6368 45.1476 98.1189 46.1391C98.3265 46.5573 98.3399 46.6315 98.3399 47.2992C98.3399 48.3311 98.1457 48.7088 97.1815 49.525L96.753 49.8824L97.1547 50.0308C98.6345 50.5704 99.2906 52.2431 98.6077 53.7539C98.4202 54.1721 97.9314 54.7184 97.5364 54.9477C97.1078 55.204 96.3512 55.4401 95.5277 55.5682C94.9184 55.6694 94.3961 55.6896 92.4945 55.6829C90.8541 55.6761 90.1711 55.6559 90.1176 55.602C90.0238 55.5075 89.9569 44.4732 90.0506 44.4597C90.7001 44.3518 93.9408 44.3113 94.7242 44.399ZM24.0646 44.5204C24.1249 44.5811 26.0198 49.471 26.9639 51.9868C27.7607 54.1249 28.2026 55.3996 28.2026 55.5615C28.2026 55.6492 28.0017 55.6627 26.7831 55.6492L25.3569 55.6289L24.9752 54.6172L24.6003 53.6055H22.4778H20.3619L19.9736 54.5565C19.7593 55.0759 19.5651 55.5413 19.5384 55.5817C19.5049 55.6424 19.0964 55.6627 18.0854 55.6627C17.3154 55.6627 16.686 55.6492 16.686 55.6357C16.686 55.6222 19.6455 47.7241 20.8239 44.6013L20.8909 44.4327L22.451 44.4529C23.3147 44.4664 24.0378 44.4934 24.0646 44.5204ZM41.6475 50.0443L41.6609 55.6627H40.3017H38.9358L38.8956 54.3339C38.8688 53.6055 38.8487 51.0897 38.8487 48.7426V44.4732L39.6723 44.4462C40.1209 44.4327 40.7436 44.4259 41.0583 44.4259L41.6274 44.4327L41.6475 50.0443ZM52.2401 50.0443C53.4051 53.0794 54.3559 55.5682 54.3559 55.5682C54.3492 55.575 53.6997 55.5952 52.9029 55.6222L51.4567 55.6694L51.0549 54.6712L50.6465 53.673L50.2916 53.6257C50.0908 53.6055 49.1132 53.5853 48.1222 53.5785L46.3077 53.5718L45.9796 54.5768L45.6582 55.575L44.8146 55.6154C44.3526 55.6424 43.7031 55.6627 43.3817 55.6627C42.8326 55.6627 42.7925 55.6559 42.8126 55.5345C42.8259 55.4603 43.7499 52.9445 44.8748 49.9364L46.917 44.4732L48.457 44.4529C49.3074 44.4394 50.0238 44.4529 50.0573 44.4799C50.0908 44.5069 51.0683 47.0092 52.2401 50.0443ZM72.769 44.4867C72.7958 44.5136 72.836 46.4494 72.8494 48.783L72.8829 53.0322L75.1996 53.0457L77.5163 53.0659L77.5364 53.9427C77.5498 54.4216 77.5364 55.0084 77.5163 55.2377L77.4694 55.6627H73.7935H70.1176V53.012C70.1176 51.5619 70.0975 49.0258 70.0707 47.3801L70.0305 44.3855L71.3763 44.4125C72.1129 44.4259 72.7423 44.4529 72.769 44.4867ZM81.3797 47.9872C81.4132 51.9598 81.4199 52.0677 81.8484 52.5871C82.1698 52.985 82.518 53.1266 83.1407 53.1266C84.2187 53.1334 84.7208 52.7354 84.9083 51.717C84.9552 51.4674 84.982 50.0848 84.982 47.8995V44.4732L86.3412 44.4529C87.0844 44.4394 87.7272 44.4597 87.7607 44.4867C87.8009 44.5204 87.8276 45.8423 87.8276 48.1963C87.8276 52.3038 87.8075 52.5264 87.3456 53.5043C86.8702 54.5093 85.752 55.3861 84.5468 55.6964C82.8394 56.1483 80.8106 55.6289 79.679 54.4688C79.0161 53.7876 78.6813 52.9917 78.5541 51.8047C78.4805 51.0762 78.4604 46.5708 78.534 45.2893L78.5742 44.4664L79.8866 44.4462C80.6097 44.4394 81.2324 44.4259 81.2793 44.4125C81.3395 44.4057 81.3663 45.2758 81.3797 47.9872ZM7.74725 47.9197L9.2136 51.373L9.40778 50.9414C9.51491 50.6985 10.0238 49.444 10.5394 48.1423C11.0549 46.8473 11.6107 45.4916 11.7781 45.1274L12.0861 44.4664H13.8068H15.5343L15.5812 45.4242C15.6281 46.4831 15.6013 55.5008 15.5477 55.548C15.5276 55.5615 14.9183 55.602 14.1952 55.6289L12.8694 55.6761L12.8628 53.356C12.8561 52.088 12.836 50.6176 12.8092 50.0983L12.769 49.154L12.3941 49.9971C12.1865 50.4625 11.8115 51.3528 11.5638 51.9868C10.7536 54.0574 10.4523 54.8128 10.2849 55.1973L10.1175 55.575L9.36761 55.6154L8.61769 55.6627L8.39673 55.4064C8.08873 55.0624 7.76734 54.3474 7.0442 52.4252C6.37463 50.6311 6.06664 49.9162 5.82559 49.5722L5.67159 49.3563L5.63811 52.4926L5.60463 55.6289L4.28558 55.6492L2.95984 55.6627V50.2736C2.95984 47.3127 2.93975 44.7902 2.91966 44.6755L2.87949 44.4664H4.5735H6.2742L7.74725 47.9197ZM37.061 45.1881C37.0877 45.5793 37.1078 46.1391 37.1078 46.4359V46.962H35.387C34.4362 46.962 33.3181 46.9822 32.9096 47.0092L32.153 47.0496V48.0546V49.0528H34.3626H36.5722V50.2669V51.4809H34.3626H32.153V53.5043V55.521L31.9388 55.5547C31.8182 55.575 31.1955 55.602 30.5661 55.6222L29.4078 55.6492V53.8146C29.4078 52.8029 29.3877 50.2871 29.3609 48.2232L29.3207 44.4664H33.1708H37.0208L37.061 45.1881ZM45.002 63.8575C45.8189 64.1475 46.2207 64.9501 45.9127 65.6853C45.7921 65.9686 45.0958 66.7172 44.1919 67.5199C43.8303 67.8369 43.5357 68.1201 43.5357 68.1539C43.5357 68.1809 44.1115 68.2078 44.8079 68.2078H46.08V68.4102V68.6125H44.1584C42.538 68.6125 42.2501 68.599 42.3305 68.5181C42.384 68.4709 42.9866 67.9313 43.6696 67.3175C44.3526 66.7038 44.9886 66.1102 45.0891 66.0091C45.29 65.7932 45.4774 65.3885 45.4774 65.166C45.4774 64.7276 45.002 64.2824 44.4329 64.188C43.7834 64.0868 43.067 64.5185 42.9599 65.0715C42.9197 65.3009 42.9063 65.3076 42.6251 65.3076C42.3372 65.3076 42.3305 65.3009 42.3706 65.1188C42.5246 64.4713 42.9532 64.0194 43.6026 63.817C43.8906 63.7293 44.7141 63.7496 45.002 63.8575ZM49.294 63.8575C49.7426 64.0194 50.0707 64.3229 50.3117 64.8152C50.5059 65.2199 50.526 65.3211 50.5528 66.0563C50.5795 66.7307 50.5595 66.9196 50.4389 67.3378C50.1108 68.4169 49.073 68.9767 47.995 68.653C47.1179 68.3832 46.6827 67.6008 46.6827 66.2721C46.6827 64.9501 47.0107 64.2689 47.8209 63.898C48.1892 63.7293 48.8788 63.7091 49.294 63.8575ZM53.9943 63.9789C54.7777 64.4375 55.0924 65.3143 54.9786 66.7307C54.8715 68.0122 54.0479 68.8081 52.9029 68.7272C51.7982 68.653 51.2022 67.9178 51.1219 66.5486C51.0349 65.166 51.4098 64.2824 52.2401 63.8912C52.6887 63.6821 53.5658 63.7226 53.9943 63.9789ZM59.2036 64.0598V64.2892L58.1858 64.3094L57.1614 64.3296L57.0208 64.9366L56.8869 65.5504L57.4962 65.5437C58.0452 65.5437 58.1457 65.5639 58.5005 65.746C59.0496 66.0293 59.2906 66.38 59.3241 66.9601C59.3509 67.331 59.3241 67.4524 59.1768 67.7627C58.8554 68.4237 58.2997 68.7137 57.3623 68.7137C56.8199 68.7137 56.7262 68.6935 56.3981 68.5113C56.0164 68.2955 55.7821 68.0392 55.6683 67.6817L55.5946 67.4659H55.8758C56.1303 67.4659 56.1704 67.4861 56.291 67.7155C56.6659 68.4169 57.9314 68.4709 58.4871 67.8099C58.8755 67.3445 58.8621 66.7307 58.4537 66.3395C58.0586 65.9686 57.4359 65.8809 56.6458 66.09C56.4249 66.144 56.2374 66.1844 56.224 66.1709C56.2106 66.1574 56.5253 64.7006 56.6927 63.9721C56.7262 63.8238 56.7396 63.8238 57.9649 63.8238H59.2036V64.0598Z" fill="#040404"/>
<path d="M40.7243 32.791C39.8739 33.0675 39.3316 33.7555 39.2646 34.6188C39.2311 35.1516 39.3182 35.5023 39.5927 35.9205C40.0145 36.5613 40.8649 36.9322 41.588 36.7838C42.358 36.6287 42.9472 36.1566 43.1615 35.5158C43.3155 35.0639 43.2954 34.322 43.128 33.9443C42.82 33.2496 42.1371 32.791 41.3604 32.7572C41.1059 32.7438 40.818 32.7572 40.7243 32.791Z" fill="#040404"/>
<path d="M45.21 34.7875V36.73L46.1005 36.6963C47.0848 36.6558 47.3794 36.5681 47.7409 36.2174C48.0958 35.8801 48.2431 35.5294 48.2766 34.9561C48.3101 34.3289 48.1427 33.8163 47.7677 33.4386C47.3593 33.0204 47.0446 32.9125 46.067 32.8787L45.21 32.845V34.7875Z" fill="#040404"/>
<path d="M61.4608 34.174C61.2532 34.6124 61.0791 35.0103 61.0791 35.0643C61.0791 35.1385 61.2264 35.1587 61.8491 35.1587C62.4249 35.1587 62.6191 35.1385 62.6124 35.071C62.6124 35.0305 62.4383 34.6259 62.2308 34.1875L61.8491 33.3848L61.4608 34.174Z" fill="#040404"/>
<path d="M92.7893 46.9083C92.7692 46.9555 92.7492 47.4074 92.7291 47.9133L92.709 48.8373L93.2112 48.8778C94.0414 48.952 95.2199 48.7362 95.4341 48.4731C95.481 48.4124 95.5212 48.1696 95.5212 47.9066C95.5279 47.3872 95.4073 47.1444 95.0525 46.9623C94.7846 46.8207 92.8295 46.7734 92.7893 46.9083Z" fill="#040404"/>
<path d="M92.7623 52.1353L92.7824 53.201L93.6461 53.2212C94.9785 53.2482 95.6816 53.0526 96.0164 52.5535C96.3043 52.1353 96.0499 51.508 95.5008 51.2517C95.233 51.1303 95.0388 51.1101 93.9675 51.0899L92.7422 51.0629L92.7623 52.1353Z" fill="#040404"/>
<path d="M21.7544 49.4376C21.433 50.3211 21.1719 51.0833 21.1719 51.1237C21.1719 51.1912 21.4732 51.2114 22.4508 51.2114H23.7296L23.6828 50.9551C23.656 50.8202 23.4953 50.3279 23.3145 49.8625C23.1404 49.3971 22.973 48.9452 22.9462 48.8508C22.8927 48.6484 22.4307 47.8391 22.3771 47.8391C22.357 47.8391 22.0758 48.5608 21.7544 49.4376Z" fill="#040404"/>
<path d="M48.3823 48.0009C48.168 48.3382 47.2842 50.7865 47.2842 51.0563V51.2114L48.3756 51.2047C48.9715 51.1979 49.5406 51.1777 49.6411 51.1507L49.8151 51.1103L49.2058 49.4713C48.8711 48.5742 48.5764 47.8391 48.5497 47.8391C48.5162 47.8391 48.4425 47.9133 48.3823 48.0009Z" fill="#040404"/>
<path d="M48.2757 64.2215C47.874 64.3496 47.6262 64.5722 47.4387 64.9566C47.2781 65.2939 47.2513 65.4355 47.2245 66.0898C47.2111 66.6563 47.2312 66.9396 47.3182 67.2364C47.6463 68.383 48.9721 68.7 49.6483 67.7894C49.9965 67.324 50.1371 66.2246 49.9563 65.3748C49.876 64.9904 49.5613 64.5317 49.2533 64.3496C49.0055 64.2012 48.5234 64.1405 48.2757 64.2215Z" fill="#040404"/>
<path d="M52.616 64.2619C52.2678 64.3834 51.933 64.7273 51.7924 65.0983C51.6987 65.3344 51.6719 65.6041 51.6719 66.2179C51.6719 67.2161 51.7589 67.5399 52.1339 67.9108C52.8905 68.6663 54.0355 68.3155 54.3568 67.2296C54.5242 66.6428 54.5108 65.6649 54.3234 65.159C54.1493 64.7138 53.781 64.3361 53.3994 64.235C53.0713 64.1405 52.9374 64.1473 52.616 64.2619Z" fill="#040404"/>
</g>
<defs>
<linearGradient id="paint0_linear_115_35266" x1="-8.97656" y1="51.3887" x2="116.687" y2="51.3887" gradientUnits="userSpaceOnUse">
<stop stop-color="#FF057C"/>
<stop offset="0.5" stop-color="#8D0B93"/>
<stop offset="1" stop-color="#321575"/>
</linearGradient>
<clipPath id="clip0_115_35266">
<rect width="102" height="74" fill="white"/>
</clipPath>
</defs>
</svg>
