<svg width="32" height="32" viewBox="0 0 32 32" fill="none" xmlns="http://www.w3.org/2000/svg">
<path d="M30.7499 15.5002C30.7482 14.1962 30.3698 12.9205 29.6602 11.8266C28.9505 10.7326 27.9399 9.86701 26.7499 9.33391V9.00016C26.7487 7.73137 26.3278 6.49863 25.5528 5.49398C24.7779 4.48933 23.6925 3.76921 22.4656 3.44579C21.2387 3.12238 19.9393 3.21385 18.7698 3.70594C17.6003 4.19803 16.6265 5.06312 15.9999 6.16641C15.3734 5.06312 14.3995 4.19803 13.23 3.70594C12.0605 3.21385 10.7611 3.12238 9.53425 3.44579C8.30737 3.76921 7.22191 4.48933 6.44698 5.49398C5.67205 6.49863 5.25117 7.73137 5.24991 9.00016V9.33391C4.05898 9.86522 3.04744 10.7301 2.3376 11.8241C1.62776 12.9181 1.25 14.1942 1.25 15.4983C1.25 16.8024 1.62776 18.0785 2.3376 19.1725C3.04744 20.2664 4.05898 21.1314 5.24991 21.6627V22.0002C5.25117 23.269 5.67205 24.5017 6.44698 25.5063C7.22191 26.511 8.30737 27.2311 9.53425 27.5545C10.7611 27.8779 12.0605 27.7865 13.23 27.2944C14.3995 26.8023 15.3734 25.9372 15.9999 24.8339C16.6265 25.9372 17.6003 26.8023 18.7698 27.2944C19.9393 27.7865 21.2387 27.8779 22.4656 27.5545C23.6925 27.2311 24.7779 26.511 25.5528 25.5063C26.3278 24.5017 26.7487 23.269 26.7499 22.0002V21.6627C27.9399 21.1306 28.9507 20.2658 29.6604 19.1724C30.3701 18.079 30.7484 16.8037 30.7499 15.5002ZM10.9999 26.2502C9.89533 26.2507 8.83393 25.8212 8.0406 25.0526C7.24727 24.284 6.78435 23.2367 6.74991 22.1327C7.16199 22.2108 7.58049 22.2502 7.99991 22.2502H8.99991C9.19882 22.2502 9.38959 22.1711 9.53024 22.0305C9.67089 21.8898 9.74991 21.6991 9.74991 21.5002C9.74991 21.3013 9.67089 21.1105 9.53024 20.9698C9.38959 20.8292 9.19882 20.7502 8.99991 20.7502H7.99991C6.76071 20.7512 5.56109 20.3138 4.61333 19.5154C3.66557 18.7171 3.03076 17.6092 2.82124 16.3878C2.61172 15.1665 2.84098 13.9103 3.46847 12.8418C4.09596 11.7732 5.08122 10.961 6.24991 10.5489C6.3962 10.4972 6.52285 10.4014 6.6124 10.2747C6.70195 10.1479 6.74999 9.99658 6.74991 9.84141V9.00016C6.74991 7.87299 7.19768 6.79199 7.99471 5.99496C8.79174 5.19793 9.87274 4.75016 10.9999 4.75016C12.1271 4.75016 13.2081 5.19793 14.0051 5.99496C14.8021 6.79199 15.2499 7.87299 15.2499 9.00016V18.1314C14.712 17.5387 14.0559 17.0651 13.324 16.7411C12.592 16.4171 11.8004 16.2499 10.9999 16.2502C10.801 16.2502 10.6102 16.3292 10.4696 16.4698C10.3289 16.6105 10.2499 16.8013 10.2499 17.0002C10.2499 17.1991 10.3289 17.3898 10.4696 17.5305C10.6102 17.6711 10.801 17.7502 10.9999 17.7502C12.1271 17.7502 13.2081 18.1979 14.0051 18.995C14.8021 19.792 15.2499 20.873 15.2499 22.0002C15.2499 23.1273 14.8021 24.2083 14.0051 25.0054C13.2081 25.8024 12.1271 26.2502 10.9999 26.2502ZM23.9999 20.7502H22.9999C22.801 20.7502 22.6102 20.8292 22.4696 20.9698C22.3289 21.1105 22.2499 21.3013 22.2499 21.5002C22.2499 21.6991 22.3289 21.8898 22.4696 22.0305C22.6102 22.1711 22.801 22.2502 22.9999 22.2502H23.9999C24.4193 22.2502 24.8378 22.2108 25.2499 22.1327C25.2239 22.9671 24.9527 23.7754 24.4701 24.4566C23.9876 25.1379 23.3151 25.662 22.5366 25.9634C21.7581 26.2649 20.908 26.3304 20.0925 26.1517C19.277 25.9731 18.5322 25.5582 17.951 24.9589C17.3698 24.3596 16.978 23.6024 16.8245 22.7818C16.6709 21.9612 16.7625 21.1135 17.0877 20.3446C17.4129 19.5757 17.9573 18.9196 18.6531 18.4582C19.3488 17.9968 20.1651 17.7506 20.9999 17.7502C21.1988 17.7502 21.3896 17.6711 21.5302 17.5305C21.6709 17.3898 21.7499 17.1991 21.7499 17.0002C21.7499 16.8013 21.6709 16.6105 21.5302 16.4698C21.3896 16.3292 21.1988 16.2502 20.9999 16.2502C20.1995 16.2499 19.4078 16.4171 18.6758 16.7411C17.9439 17.0651 17.2879 17.5387 16.7499 18.1314V9.00016C16.7499 7.87299 17.1977 6.79199 17.9947 5.99496C18.7917 5.19793 19.8727 4.75016 20.9999 4.75016C22.1271 4.75016 23.2081 5.19793 24.0051 5.99496C24.8021 6.79199 25.2499 7.87299 25.2499 9.00016V9.84141C25.2498 9.99658 25.2979 10.1479 25.3874 10.2747C25.477 10.4014 25.6036 10.4972 25.7499 10.5489C26.9186 10.961 27.9039 11.7732 28.5314 12.8418C29.1588 13.9103 29.3881 15.1665 29.1786 16.3878C28.9691 17.6092 28.3343 18.7171 27.3865 19.5154C26.4387 20.3138 25.2391 20.7512 23.9999 20.7502ZM25.7499 14.0002C25.7499 14.1991 25.6709 14.3898 25.5302 14.5305C25.3896 14.6711 25.1988 14.7502 24.9999 14.7502H24.4999C23.3727 14.7502 22.2917 14.3024 21.4947 13.5054C20.6977 12.7083 20.2499 11.6273 20.2499 10.5002V10.0002C20.2499 9.80125 20.3289 9.61049 20.4696 9.46983C20.6102 9.32918 20.801 9.25016 20.9999 9.25016C21.1988 9.25016 21.3896 9.32918 21.5302 9.46983C21.6709 9.61049 21.7499 9.80125 21.7499 10.0002V10.5002C21.7499 11.2295 22.0396 11.929 22.5554 12.4447C23.0711 12.9604 23.7706 13.2502 24.4999 13.2502H24.9999C25.1988 13.2502 25.3896 13.3292 25.5302 13.4698C25.6709 13.6105 25.7499 13.8013 25.7499 14.0002ZM7.49991 14.7502H6.99991C6.801 14.7502 6.61023 14.6711 6.46958 14.5305C6.32893 14.3898 6.24991 14.1991 6.24991 14.0002C6.24991 13.8013 6.32893 13.6105 6.46958 13.4698C6.61023 13.3292 6.801 13.2502 6.99991 13.2502H7.49991C8.22926 13.2502 8.92873 12.9604 9.44446 12.4447C9.96018 11.929 10.2499 11.2295 10.2499 10.5002V10.0002C10.2499 9.80125 10.3289 9.61049 10.4696 9.46983C10.6102 9.32918 10.801 9.25016 10.9999 9.25016C11.1988 9.25016 11.3896 9.32918 11.5302 9.46983C11.6709 9.61049 11.7499 9.80125 11.7499 10.0002V10.5002C11.7499 11.6273 11.3021 12.7083 10.5051 13.5054C9.70809 14.3024 8.62708 14.7502 7.49991 14.7502Z" fill="#8D0B93"/>
</svg>
