<svg width="25" height="24" viewBox="0 0 25 24" fill="none" xmlns="http://www.w3.org/2000/svg">
<g clip-path="url(#clip0_115_32438)">
<path fill-rule="evenodd" clip-rule="evenodd" d="M13.7 19.2C14.3365 19.2 14.947 19.4529 15.3971 19.9029C15.8471 20.353 16.1 20.9635 16.1 21.6C16.1 22.2365 15.8471 22.847 15.3971 23.2971C14.947 23.7471 14.3365 24 13.7 24C13.0635 24 12.453 23.7471 12.0029 23.2971C11.5529 22.847 11.3 22.2365 11.3 21.6C11.3 20.9635 11.5529 20.353 12.0029 19.9029C12.453 19.4529 13.0635 19.2 13.7 19.2ZM6.1892 15.6C6.98485 15.6 7.74791 15.9161 8.31052 16.4787C8.87313 17.0413 9.1892 17.8044 9.1892 18.6C9.1892 19.3957 8.87313 20.1587 8.31052 20.7213C7.74791 21.2839 6.98485 21.6 6.1892 21.6C5.39355 21.6 4.63049 21.2839 4.06788 20.7213C3.50527 20.1587 3.1892 19.3957 3.1892 18.6C3.1892 17.8044 3.50527 17.0413 4.06788 16.4787C4.63049 15.9161 5.39355 15.6 6.1892 15.6ZM20.0828 16.2C20.7193 16.2 21.3298 16.4529 21.7799 16.9029C22.2299 17.353 22.4828 17.9635 22.4828 18.6C22.4828 19.2365 22.2299 19.847 21.7799 20.2971C21.3298 20.7471 20.7193 21 20.0828 21C19.4463 21 18.8358 20.7471 18.3857 20.2971C17.9357 19.847 17.6828 19.2365 17.6828 18.6C17.6828 17.9635 17.9357 17.353 18.3857 16.9029C18.8358 16.4529 19.4463 16.2 20.0828 16.2ZM22.7 11.1828C23.1774 11.1828 23.6352 11.3724 23.9728 11.71C24.3104 12.0476 24.5 12.5054 24.5 12.9828C24.5 13.4602 24.3104 13.918 23.9728 14.2556C23.6352 14.5932 23.1774 14.7828 22.7 14.7828C22.2226 14.7828 21.7648 14.5932 21.4272 14.2556C21.0896 13.918 20.9 13.4602 20.9 12.9828C20.9 12.5054 21.0896 12.0476 21.4272 11.71C21.7648 11.3724 22.2226 11.1828 22.7 11.1828ZM3.5 7.2C4.29565 7.2 5.05871 7.51607 5.62132 8.07868C6.18393 8.64129 6.5 9.40435 6.5 10.2C6.5 10.9957 6.18393 11.7587 5.62132 12.3213C5.05871 12.8839 4.29565 13.2 3.5 13.2C2.70435 13.2 1.94129 12.8839 1.37868 12.3213C0.816071 11.7587 0.5 10.9957 0.5 10.2C0.5 9.40435 0.816071 8.64129 1.37868 8.07868C1.94129 7.51607 2.70435 7.2 3.5 7.2ZM21.8432 6.2484C22.1615 6.2484 22.4667 6.37483 22.6917 6.59987C22.9168 6.82492 23.0432 7.13014 23.0432 7.4484C23.0432 7.76666 22.9168 8.07189 22.6917 8.29693C22.4667 8.52197 22.1615 8.6484 21.8432 8.6484C21.5249 8.6484 21.2197 8.52197 20.9947 8.29693C20.7696 8.07189 20.6432 7.76666 20.6432 7.4484C20.6432 7.13014 20.7696 6.82492 20.9947 6.59987C21.2197 6.37483 21.5249 6.2484 21.8432 6.2484ZM10.1 0C11.0548 0 11.9705 0.379285 12.6456 1.05442C13.3207 1.72955 13.7 2.64522 13.7 3.6C13.7 4.55478 13.3207 5.47045 12.6456 6.14558C11.9705 6.82072 11.0548 7.2 10.1 7.2C9.14522 7.2 8.22955 6.82072 7.55442 6.14558C6.87928 5.47045 6.5 4.55478 6.5 3.6C6.5 2.64522 6.87928 1.72955 7.55442 1.05442C8.22955 0.379285 9.14522 0 10.1 0ZM19.1 3.6C19.2591 3.6 19.4117 3.66321 19.5243 3.77574C19.6368 3.88826 19.7 4.04087 19.7 4.2C19.7 4.35913 19.6368 4.51174 19.5243 4.62426C19.4117 4.73679 19.2591 4.8 19.1 4.8C18.9409 4.8 18.7883 4.73679 18.6757 4.62426C18.5632 4.51174 18.5 4.35913 18.5 4.2C18.5 4.04087 18.5632 3.88826 18.6757 3.77574C18.7883 3.66321 18.9409 3.6 19.1 3.6Z" fill="#F3F3F3"/>
</g>
<defs>
<clipPath id="clip0_115_32438">
<rect width="24" height="24" fill="white" transform="translate(0.5)"/>
</clipPath>
</defs>
</svg>
