<svg width="16" height="16" viewBox="0 0 16 16" fill="none" xmlns="http://www.w3.org/2000/svg">
<path fill-rule="evenodd" clip-rule="evenodd" d="M13.7111 3.04442C13.7607 2.99483 13.8 2.93596 13.8268 2.87118C13.8537 2.80639 13.8675 2.73695 13.8675 2.66682C13.8675 2.59669 13.8537 2.52725 13.8268 2.46246C13.8 2.39768 13.7607 2.33881 13.7111 2.28922C13.6615 2.23963 13.6026 2.2003 13.5378 2.17346C13.4731 2.14663 13.4036 2.13281 13.3335 2.13281C13.2634 2.13281 13.1939 2.14663 13.1291 2.17346C13.0643 2.2003 13.0055 2.23963 12.9559 2.28922L8.00015 7.24602L3.04442 2.28922C2.99483 2.23963 2.93596 2.2003 2.87118 2.17346C2.80639 2.14663 2.73695 2.13281 2.66682 2.13281C2.59669 2.13281 2.52725 2.14663 2.46246 2.17346C2.39768 2.2003 2.33881 2.23963 2.28922 2.28922C2.23963 2.33881 2.2003 2.39768 2.17346 2.46246C2.14663 2.52725 2.13281 2.59669 2.13281 2.66682C2.13281 2.73695 2.14663 2.80639 2.17346 2.87118C2.2003 2.93596 2.23963 2.99483 2.28922 3.04442L7.24602 8.00015L2.28922 12.9559C2.18907 13.056 2.13281 13.1919 2.13281 13.3335C2.13281 13.4751 2.18907 13.6109 2.28922 13.7111C2.38937 13.8112 2.52519 13.8675 2.66682 13.8675C2.80845 13.8675 2.94427 13.8112 3.04442 13.7111L8.00015 8.75429L12.9559 13.7111C13.056 13.8112 13.1919 13.8675 13.3335 13.8675C13.4751 13.8675 13.6109 13.8112 13.7111 13.7111C13.8112 13.6109 13.8675 13.4751 13.8675 13.3335C13.8675 13.1919 13.8112 13.056 13.7111 12.9559L8.75429 8.00015L13.7111 3.04442Z" fill="#F3F3F3"/>
</svg>
