<svg width="32" height="32" viewBox="0 0 32 32" fill="none" xmlns="http://www.w3.org/2000/svg">
<g id="icon_ear-light">
<path id="Vector" d="M26.5 12.75C26.5 12.9489 26.421 13.1397 26.2803 13.2803C26.1397 13.421 25.9489 13.5 25.75 13.5C25.5511 13.5 25.3603 13.421 25.2197 13.2803C25.079 13.1397 25 12.9489 25 12.75C25 10.2967 24.0254 7.94397 22.2907 6.20926C20.556 4.47455 18.2033 3.5 15.75 3.5C13.2967 3.5 10.944 4.47455 9.20926 6.20926C7.47455 7.94397 6.5 10.2967 6.5 12.75C6.5 16.1938 7.60375 17.2575 8.7725 18.385C9.31125 18.9037 9.86875 19.4412 10.2925 20.1938C10.7687 21.0387 11 22.0375 11 23.25C11 24.5098 11.5004 25.718 12.3912 26.6088C13.282 27.4996 14.4902 28 15.75 28C17.0925 28 18.2112 27.435 19.1712 26.2725C19.234 26.1965 19.311 26.1336 19.398 26.0874C19.4851 26.0411 19.5803 26.0125 19.6784 26.0031C19.7765 25.9937 19.8755 26.0037 19.9697 26.0326C20.0639 26.0614 20.1515 26.1085 20.2275 26.1712C20.3035 26.234 20.3664 26.311 20.4126 26.398C20.4589 26.4851 20.4875 26.5803 20.4969 26.6784C20.5063 26.7765 20.4963 26.8755 20.4674 26.9697C20.4386 27.0639 20.3915 27.1515 20.3288 27.2275C19.0825 28.735 17.5425 29.5 15.75 29.5C14.093 29.498 12.5044 28.8389 11.3328 27.6672C10.1611 26.4956 9.50198 24.907 9.5 23.25C9.5 21.17 8.72 20.4175 7.73125 19.4638C6.515 18.2913 5 16.83 5 12.75C5 9.89892 6.13259 7.16462 8.1486 5.1486C10.1646 3.13259 12.8989 2 15.75 2C18.6011 2 21.3354 3.13259 23.3514 5.1486C25.3674 7.16462 26.5 9.89892 26.5 12.75ZM21.8575 20.1012C21.6854 20.002 21.4809 19.975 21.289 20.0264C21.0971 20.0777 20.9333 20.2031 20.8337 20.375C20.6964 20.6139 20.484 20.8008 20.2296 20.9065C19.9751 21.0122 19.6928 21.0309 19.4266 20.9596C19.1605 20.8883 18.9253 20.731 18.7577 20.5123C18.5901 20.2935 18.4995 20.0256 18.5 19.75C18.5 18.5 19.125 17.6663 19.85 16.7C20.625 15.6688 21.5 14.5 21.5 12.75C21.5 11.225 20.8942 9.76247 19.8159 8.68414C18.7375 7.6058 17.275 7 15.75 7C14.225 7 12.7625 7.6058 11.6841 8.68414C10.6058 9.76247 10 11.225 10 12.75C10 12.9489 10.079 13.1397 10.2197 13.2803C10.3603 13.421 10.5511 13.5 10.75 13.5C10.9489 13.5 11.1397 13.421 11.2803 13.2803C11.421 13.1397 11.5 12.9489 11.5 12.75C11.5 11.6228 11.9478 10.5418 12.7448 9.7448C13.5418 8.94777 14.6228 8.5 15.75 8.5C16.8772 8.5 17.9582 8.94777 18.7552 9.7448C19.5522 10.5418 20 11.6228 20 12.75C20 14 19.375 14.8337 18.65 15.8C17.875 16.8312 17 18 17 19.75C17.0001 20.3553 17.1999 20.9436 17.5684 21.4237C17.9369 21.9039 18.4536 22.2491 19.0382 22.4057C19.6228 22.5624 20.2428 22.5218 20.8021 22.2902C21.3613 22.0587 21.8285 21.6491 22.1313 21.125C22.2305 20.9529 22.2575 20.7484 22.2061 20.5565C22.1548 20.3646 22.0294 20.2008 21.8575 20.1012Z" fill="#8D0B93"/>
</g>
</svg>
