<svg width="32" height="32" viewBox="0 0 32 32" fill="none" xmlns="http://www.w3.org/2000/svg">
<path d="M9.87207 13.6836L13.9487 13.0456L11.3021 10.1149L9.87207 13.6836ZM13.5341 10.6343L14.7407 8.3916L17.0261 9.57627L15.8194 11.8189L13.5341 10.6343Z" fill="#8D0B93"/>
<path fill-rule="evenodd" clip-rule="evenodd" d="M18.78 13.7731C18.374 14.0565 17.891 14.2087 17.396 14.2091C17.0226 14.2091 16.9133 14.1225 16.706 13.9571C16.6393 13.9038 16.562 13.8425 16.4626 13.7731C16.3486 13.8971 16.296 14.0098 16.2486 14.1098C16.178 14.2605 16.1206 14.3831 15.8866 14.4745C15.4706 14.6838 15.1206 15.0078 14.876 15.4091C14.6309 15.8124 14.5018 16.2753 14.5026 16.7471V19.4105H11.2506C11.1847 18.8412 10.994 18.2935 10.692 17.8065C10.3925 17.3227 9.98838 16.9122 9.50931 16.6051C9.09339 16.422 8.73573 16.1282 8.47531 15.7558C8.21252 15.3803 8.0557 14.9409 8.02131 14.4838C7.58852 14.0147 7.34897 13.3994 7.35065 12.7611C7.34681 12.2107 7.52415 11.6742 7.85531 11.2345C7.79461 11.0178 7.76542 10.7935 7.76865 10.5685C7.76747 10.0318 7.93593 9.5084 8.24998 9.07315L9.50998 8.16315C9.70155 7.72189 10.0164 7.34528 10.4166 7.07848C10.8133 6.81455 11.2789 6.67313 11.7553 6.67182C11.9513 6.67248 12.1473 6.69648 12.3386 6.74248C12.7405 6.35941 13.2609 6.12473 13.814 6.07715L17.1286 6.26715C17.7193 6.41581 18.2353 6.78115 18.5793 7.29315H18.754L20.3006 7.84515C20.7407 8.2068 21.0453 8.70687 21.1646 9.26381C21.698 9.50145 22.1335 9.91525 22.398 10.4358C22.6653 10.9585 22.7486 11.5598 22.6333 12.1378C22.5196 12.7132 22.2135 13.2328 21.7653 13.6111L20.1813 14.1998C19.6814 14.2052 19.1921 14.0562 18.78 13.7731ZM20.0533 13.2298C19.7831 13.2138 19.521 13.1316 19.29 12.9905L18.776 12.6391C18.628 12.7531 18.282 13.0045 18.0833 13.0945C17.836 13.2078 17.29 13.2411 17.29 13.2411C17.29 13.2411 16.8806 12.8991 16.3533 12.5578C16.276 12.6418 16.0713 12.8611 15.874 13.0718C15.7283 13.2274 15.6098 13.4063 15.5233 13.6011C15.3473 13.6905 14.9253 13.9458 14.6446 14.2485C14.2933 14.6271 13.6513 15.4265 13.6513 16.7285V18.4471H11.926C11.7593 17.8525 11.268 16.6891 10.11 15.8891L10.1126 15.8871C10.0523 15.8443 9.99098 15.803 9.92865 15.7631L9.87531 15.7285L9.81731 15.7038C9.54633 15.5857 9.31297 15.3954 9.14265 15.1538C8.98519 14.9312 8.89075 14.6703 8.86931 14.3985L8.84265 14.0351L8.60931 13.7831C8.34921 13.5057 8.2039 13.1401 8.20265 12.7598V12.7518C8.20171 12.4292 8.30715 12.1152 8.50265 11.8585L8.81131 11.4505L8.66731 10.9398C8.6346 10.8231 8.61888 10.7023 8.62065 10.5811V10.5638C8.61998 10.2991 8.69131 10.0305 8.83665 9.78981L10.168 8.82782L10.2733 8.58648C10.395 8.30939 10.5941 8.07329 10.8466 7.90648C11.0382 7.77979 11.254 7.69443 11.4804 7.65586C11.7067 7.6173 11.9386 7.62636 12.1613 7.68248L12.568 7.78048L12.886 7.47781C13.1366 7.24048 13.466 7.08181 13.8293 7.04048L17.0073 7.22248C17.3722 7.32865 17.6884 7.55906 17.9013 7.87381L18.1573 8.25382H18.6226L19.898 8.70915C20.128 8.93048 20.276 9.20581 20.338 9.49048L20.4426 9.97648L20.8546 10.1585C21.218 10.3198 21.4966 10.5945 21.6613 10.9151C21.8233 11.2331 21.8693 11.5865 21.8026 11.9231C21.7426 12.2231 21.592 12.5131 21.354 12.7471L20.0526 13.2298H20.0533Z" fill="#8D0B93"/>
<path d="M22.6689 16.0517C22.669 16.1831 22.6433 16.3131 22.5931 16.4345C22.543 16.5559 22.4694 16.6662 22.3767 16.7591C22.2839 16.8521 22.1737 16.9259 22.0525 16.9762C21.9312 17.0266 21.8012 17.0526 21.6699 17.0527C21.5385 17.0529 21.4085 17.0271 21.2871 16.977C21.1657 16.9269 21.0554 16.8533 20.9625 16.7605C20.8695 16.6678 20.7957 16.5576 20.7454 16.4363C20.695 16.3151 20.669 16.1851 20.6689 16.0537C20.6686 15.7885 20.7737 15.5341 20.9611 15.3463C21.1484 15.1586 21.4027 15.053 21.6679 15.0527C21.9331 15.0525 22.1875 15.1576 22.3753 15.3449C22.563 15.5323 22.6686 15.7865 22.6689 16.0517ZM11.3402 21.7277L14.0069 21.7257L14.0055 20.3924L11.3389 20.3944L11.3402 21.7277ZM14.0089 24.3924L11.3422 24.3944L11.3415 23.0611L14.0082 23.0591L14.0089 24.3924ZM11.3449 27.0611L14.0115 27.0591L14.0102 25.7257L11.3435 25.7277L11.3449 27.0611Z" fill="#8D0B93"/>
<path fill-rule="evenodd" clip-rule="evenodd" d="M17.9793 25.946C17.1807 25.85 16.646 25.7127 16.646 25.7127L16.648 28.0007C16.648 28.0007 16.092 29.8254 12.9327 29.8274C11.446 29.9507 8.89933 28.9487 8.22267 27.534L8.21867 21.8714C5.83867 20.04 4.00267 16.2394 4 13.038C4.00115 11.7162 4.26602 10.4078 4.77909 9.18961C5.29216 7.97139 6.04312 6.86777 6.988 5.94337C8.91774 4.05507 11.5107 2.99838 14.2107 3.00004C16.2778 2.99532 18.3217 3.43503 20.204 4.28937C21.6786 4.89555 22.9745 5.86745 23.9693 7.11337C24.8707 8.41171 25.3727 9.94534 25.4133 11.5254C25.4213 11.8814 25.4173 12.25 25.4133 12.6254C25.3973 13.9834 25.38 15.4307 25.9567 16.6587C25.9567 16.6587 27.6487 18.2254 27.4267 19.4847C27.2047 20.7434 25.0027 21.0914 25.0027 21.0914C25.0073 26.1534 20.3393 26.2314 17.9787 25.946H17.9793ZM24.7507 17.2247L24.8607 17.4607L25.0493 17.6354L25.056 17.6414L25.07 17.6547L25.0927 17.6774C25.3117 17.8948 25.5128 18.1296 25.694 18.3794C25.854 18.6007 25.978 18.8147 26.0513 19C26.098 19.1187 26.11 19.192 26.1133 19.228C26.1007 19.2416 26.0874 19.2546 26.0733 19.2667C25.9827 19.3467 25.828 19.4414 25.6133 19.532C25.3642 19.6353 25.1053 19.7134 24.8407 19.7654L24.814 19.7707L24.7973 19.774L24.7907 19.7754L23.6707 19.9527V21.0927C23.672 22.49 23.254 23.2527 22.778 23.7094C22.2673 24.1987 21.5247 24.492 20.6327 24.6234C19.7487 24.754 18.8327 24.7074 18.1153 24.6194C17.7542 24.5749 17.3954 24.5135 17.04 24.4354C17.0222 24.4315 17.0044 24.4275 16.9867 24.4234L16.9793 24.4207H16.978L15.3113 23.9914L15.3147 27.682C15.2548 27.7623 15.1859 27.8354 15.1093 27.9C14.8467 28.1247 14.2367 28.4934 12.9327 28.4947H12.878L12.8247 28.4987C12.3747 28.536 11.598 28.394 10.826 28.0434C10.1947 27.7567 9.77333 27.426 9.55667 27.158L9.552 21.214L9.032 20.814C8.04733 20.0567 7.112 18.834 6.42067 17.392C5.732 15.9547 5.33533 14.4 5.334 13.0374C5.3353 11.8927 5.56499 10.7598 6.0096 9.70508C6.45422 8.65032 7.10483 7.69487 7.92333 6.8947C9.60413 5.25085 11.8623 4.33131 14.2133 4.33337H14.2147C16.0909 4.32896 17.9462 4.72797 19.6547 5.50337L19.676 5.51337L19.6973 5.52204C20.9484 6.03596 22.0499 6.85677 22.9 7.9087C23.6377 8.9857 24.0482 10.2531 24.082 11.558C24.0893 11.888 24.0853 12.23 24.0813 12.6074L24.0793 12.7854C24.074 13.222 24.0713 13.698 24.0927 14.1787C24.1353 15.1334 24.274 16.2087 24.7507 17.2247Z" fill="#8D0B93"/>
</svg>
