<svg width="32" height="32" viewBox="0 0 32 32" fill="none" xmlns="http://www.w3.org/2000/svg">
<g clip-path="url(#clip0_82_16785)">
<path d="M26.3998 17.8314C26.0574 17.5676 25.6586 17.3866 25.2347 17.3025C24.8108 17.2184 24.3732 17.2334 23.956 17.3464L23.416 17.4714C26.1348 14.9439 27.5098 12.4389 27.5098 10.0001C27.5098 6.83011 24.961 4.25011 21.8273 4.25011C20.9435 4.24457 20.0706 4.44503 19.2777 4.83558C18.4849 5.22614 17.794 5.79605 17.2598 6.50011C16.7255 5.79605 16.0346 5.22614 15.2418 4.83558C14.449 4.44503 13.576 4.24457 12.6923 4.25011C9.55852 4.25011 7.00977 6.83011 7.00977 10.0001C7.00977 11.4226 7.46352 12.8114 8.42102 14.2951C7.63615 14.4162 6.9107 14.7855 6.35102 15.3489L3.44977 18.2501H-0.240234C-0.704363 18.2501 -1.14948 18.4345 -1.47767 18.7627C-1.80586 19.0909 -1.99023 19.536 -1.99023 20.0001V25.0001C-1.99023 25.4642 -1.80586 25.9094 -1.47767 26.2375C-1.14948 26.5657 -0.704363 26.7501 -0.240234 26.7501H12.7598C12.8213 26.7501 12.8826 26.7426 12.9423 26.7276L20.9423 24.7276C20.9801 24.7176 21.0173 24.705 21.0535 24.6901L25.906 22.6251L25.9473 22.6064C26.3763 22.3921 26.7437 22.0721 27.015 21.6766C27.2862 21.2811 27.4522 20.8231 27.4975 20.3456C27.5428 19.8682 27.4658 19.3871 27.2737 18.9477C27.0817 18.5083 26.7809 18.1249 26.3998 17.8339V17.8314ZM12.6923 5.75011C13.5171 5.73911 14.3265 5.97446 15.0168 6.42606C15.7071 6.87765 16.2469 7.52495 16.5673 8.28511C16.6238 8.42267 16.7199 8.54032 16.8434 8.62313C16.9669 8.70593 17.1123 8.75014 17.261 8.75014C17.4097 8.75014 17.5551 8.70593 17.6786 8.62313C17.8021 8.54032 17.8983 8.42267 17.9548 8.28511C18.2751 7.52495 18.815 6.87765 19.5053 6.42606C20.1956 5.97446 21.0049 5.73911 21.8298 5.75011C24.0948 5.75011 26.0098 7.69636 26.0098 10.0001C26.0098 12.5301 23.9873 15.3751 20.1598 18.2189L18.301 18.6464C18.4864 18.1545 18.5497 17.6251 18.4856 17.1034C18.4214 16.5817 18.2317 16.0834 17.9326 15.6511C17.6336 15.2189 17.2342 14.8656 16.7687 14.6216C16.3031 14.3776 15.7854 14.2501 15.2598 14.2501H10.2185C9.05477 12.7089 8.50977 11.3514 8.50977 10.0001C8.50977 7.69636 10.4248 5.75011 12.6923 5.75011ZM-0.490234 25.0001V20.0001C-0.490234 19.9338 -0.463895 19.8702 -0.417011 19.8233C-0.370127 19.7765 -0.306538 19.7501 -0.240234 19.7501H3.00977V25.2501H-0.240234C-0.306538 25.2501 -0.370127 25.2238 -0.417011 25.1769C-0.463895 25.13 -0.490234 25.0664 -0.490234 25.0001ZM25.2948 21.2501L20.5198 23.2839L12.6673 25.2501H4.50977V19.3114L7.41102 16.4089C7.6195 16.1993 7.8675 16.0331 8.14064 15.9201C8.41378 15.807 8.70665 15.7492 9.00227 15.7501H15.2598C15.7239 15.7501 16.169 15.9345 16.4972 16.2627C16.8254 16.5909 17.0098 17.036 17.0098 17.5001C17.0098 17.9642 16.8254 18.4094 16.4972 18.7375C16.169 19.0657 15.7239 19.2501 15.2598 19.2501H11.7598C11.5609 19.2501 11.3701 19.3291 11.2294 19.4698C11.0888 19.6104 11.0098 19.8012 11.0098 20.0001C11.0098 20.199 11.0888 20.3898 11.2294 20.5304C11.3701 20.6711 11.5609 20.7501 11.7598 20.7501H15.7598C15.8161 20.7502 15.8723 20.7439 15.9273 20.7314L24.3023 18.8051L24.3323 18.7976C24.6475 18.7117 24.9833 18.7452 25.2753 18.8918C25.5673 19.0384 25.7948 19.2878 25.9142 19.5919C26.0335 19.896 26.0363 20.2336 25.922 20.5396C25.8077 20.8457 25.5843 21.0987 25.2948 21.2501Z" fill="#8D0B93"/>
</g>
<defs>
<clipPath id="clip0_82_16785">
<rect width="32" height="32" fill="white"/>
</clipPath>
</defs>
</svg>
