<svg width="32" height="32" viewBox="0 0 32 32" fill="none" xmlns="http://www.w3.org/2000/svg">
<path d="M15.9995 11.666C14.8502 11.666 13.748 12.1226 12.9353 12.9352C12.1227 13.7479 11.6661 14.8501 11.6661 15.9993C11.6661 17.1486 12.1227 18.2508 12.9353 19.0635C13.748 19.8761 14.8502 20.3327 15.9995 20.3327C17.1487 20.3327 18.2509 19.8761 19.0636 19.0635C19.8763 18.2508 20.3328 17.1486 20.3328 15.9993C20.3328 14.8501 19.8763 13.7479 19.0636 12.9352C18.2509 12.1226 17.1487 11.666 15.9995 11.666Z" fill="currentColor"/>
<path fill-rule="evenodd" clip-rule="evenodd" d="M9.02513 4.10991C13.6598 3.59618 18.3371 3.59618 22.9718 4.10991C25.5038 4.39258 27.5451 6.38591 27.8425 8.92724C28.3921 13.6268 28.3921 18.3744 27.8425 23.0739C27.5451 25.6152 25.5038 27.6086 22.9731 27.8926C18.338 28.4065 13.6603 28.4065 9.02513 27.8926C6.49313 27.6086 4.45179 25.6152 4.15446 23.0752C3.60476 18.3753 3.60476 13.6272 4.15446 8.92724C4.45179 6.38591 6.49313 4.39258 9.02513 4.10991ZM22.6651 8.00058C22.3115 8.00058 21.9724 8.14105 21.7223 8.3911C21.4723 8.64115 21.3318 8.98029 21.3318 9.33391C21.3318 9.68753 21.4723 10.0267 21.7223 10.2767C21.9724 10.5268 22.3115 10.6672 22.6651 10.6672C23.0187 10.6672 23.3579 10.5268 23.6079 10.2767C23.858 10.0267 23.9985 9.68753 23.9985 9.33391C23.9985 8.98029 23.858 8.64115 23.6079 8.3911C23.3579 8.14105 23.0187 8.00058 22.6651 8.00058ZM9.66513 16.0006C9.66513 14.3209 10.3324 12.71 11.5201 11.5222C12.7078 10.3345 14.3188 9.66724 15.9985 9.66724C17.6782 9.66724 19.2891 10.3345 20.4768 11.5222C21.6645 12.71 22.3318 14.3209 22.3318 16.0006C22.3318 17.6803 21.6645 19.2912 20.4768 20.4789C19.2891 21.6666 17.6782 22.3339 15.9985 22.3339C14.3188 22.3339 12.7078 21.6666 11.5201 20.4789C10.3324 19.2912 9.66513 17.6803 9.66513 16.0006Z" fill="currentColor"/>
</svg>
