<svg  viewBox="0 0 54 54" fill="none" xmlns="http://www.w3.org/2000/svg">
<g filter="url(#filter0_d_696_42947)">
<path fill-rule="evenodd" clip-rule="evenodd" d="M30.7101 19.0442C30.7597 18.9946 30.799 18.9357 30.8259 18.8709C30.8527 18.8061 30.8665 18.7367 30.8665 18.6666C30.8665 18.5964 30.8527 18.527 30.8259 18.4622C30.799 18.3974 30.7597 18.3386 30.7101 18.289C30.6605 18.2394 30.6017 18.2001 30.5369 18.1732C30.4721 18.1464 30.4026 18.1326 30.3325 18.1326C30.2624 18.1326 30.1929 18.1464 30.1282 18.1732C30.0634 18.2001 30.0045 18.2394 29.9549 18.289L24.9992 23.2458L20.0434 18.289C19.9939 18.2394 19.935 18.2001 19.8702 18.1732C19.8054 18.1464 19.736 18.1326 19.6658 18.1326C19.5957 18.1326 19.5263 18.1464 19.4615 18.1732C19.3967 18.2001 19.3378 18.2394 19.2882 18.289C19.2387 18.3386 19.1993 18.3974 19.1725 18.4622C19.1456 18.527 19.1318 18.5964 19.1318 18.6666C19.1318 18.7367 19.1456 18.8061 19.1725 18.8709C19.1993 18.9357 19.2387 18.9946 19.2882 19.0442L24.245 23.9999L19.2882 28.9556C19.1881 29.0558 19.1318 29.1916 19.1318 29.3332C19.1318 29.4749 19.1881 29.6107 19.2882 29.7108C19.3884 29.811 19.5242 29.8672 19.6658 29.8672C19.8075 29.8672 19.9433 29.811 20.0434 29.7108L24.9992 24.754L29.9549 29.7108C30.0551 29.811 30.1909 29.8672 30.3325 29.8672C30.4741 29.8672 30.61 29.811 30.7101 29.7108C30.8103 29.6107 30.8665 29.4749 30.8665 29.3332C30.8665 29.1916 30.8103 29.0558 30.7101 28.9556L25.7533 23.9999L30.7101 19.0442Z" fill="#F3F3F3"/>
<rect x="11.75" y="10.75" width="26.5" height="26.5" rx="4.25" stroke="#737373" stroke-width="1.5" shape-rendering="crispEdges"/>
</g>
<defs>
<filter id="filter0_d_696_42947" x="0" y="0" width="54" height="54" filterUnits="userSpaceOnUse" color-interpolation-filters="sRGB">
<feFlood flood-opacity="0" result="BackgroundImageFix"/>
<feColorMatrix in="SourceAlpha" type="matrix" values="0 0 0 0 0 0 0 0 0 0 0 0 0 0 0 0 0 0 127 0" result="hardAlpha"/>
<feOffset dx="2" dy="3"/>
<feGaussianBlur stdDeviation="6.5"/>
<feComposite in2="hardAlpha" operator="out"/>
<feColorMatrix type="matrix" values="0 0 0 0 0.0200278 0 0 0 0 0.0806843 0 0 0 0 0.171667 0 0 0 0.16 0"/>
<feBlend mode="normal" in2="BackgroundImageFix" result="effect1_dropShadow_696_42947"/>
<feBlend mode="normal" in="SourceGraphic" in2="effect1_dropShadow_696_42947" result="shape"/>
</filter>
</defs>
</svg>
