<svg width="22" height="22" viewBox="0 0 22 22" fill="none" xmlns="http://www.w3.org/2000/svg">
<rect width="22" height="22" rx="3" fill="#26242E"/>
<path d="M17.4237 6.24287C17.5013 6.32028 17.5629 6.41224 17.6049 6.51348C17.6469 6.61472 17.6686 6.72326 17.6686 6.83287C17.6686 6.94248 17.6469 7.05102 17.6049 7.15226C17.5629 7.2535 17.5013 7.34546 17.4237 7.42287L9.92374 14.9229C9.84633 15.0005 9.75437 15.062 9.65312 15.1041C9.55188 15.1461 9.44335 15.1677 9.33373 15.1677C9.22412 15.1677 9.11559 15.1461 9.01435 15.1041C8.9131 15.062 8.82114 15.0005 8.74373 14.9229L5.4104 11.5895C5.25392 11.4331 5.16602 11.2208 5.16602 10.9995C5.16602 10.7782 5.25392 10.566 5.4104 10.4095C5.56688 10.2531 5.77911 10.1652 6.0004 10.1652C6.22169 10.1652 6.43392 10.2531 6.5904 10.4095L9.33373 13.1545L16.2437 6.24287C16.3211 6.16526 16.4131 6.10369 16.5143 6.06168C16.6156 6.01967 16.7241 5.99805 16.8337 5.99805C16.9433 5.99805 17.0519 6.01967 17.1531 6.06168C17.2544 6.10369 17.3463 6.16526 17.4237 6.24287Z" fill="#F3F3F3"/>
</svg>
