<svg xmlns="http://www.w3.org/2000/svg" width="60" height="60" viewBox="0 0 60 60" fill="none">
<path d="M30 6.09375C25.2718 6.09375 20.6498 7.49583 16.7184 10.1227C12.787 12.7495 9.72292 16.4832 7.91352 20.8515C6.10411 25.2198 5.63068 30.0265 6.55311 34.6639C7.47554 39.3012 9.75239 43.5609 13.0957 46.9043C16.4391 50.2476 20.6988 52.5245 25.3361 53.4469C29.9735 54.3693 34.7802 53.8959 39.1485 52.0865C43.5168 50.2771 47.2505 47.213 49.8773 43.2816C52.5042 39.3502 53.9063 34.7282 53.9063 30C53.8988 23.662 51.3777 17.5856 46.8961 13.104C42.4144 8.62227 36.3381 6.10119 30 6.09375ZM30 51.0938C25.8281 51.0938 21.7498 49.8566 18.281 47.5388C14.8121 45.221 12.1085 41.9266 10.5119 38.0722C8.91539 34.2178 8.49766 29.9766 9.31157 25.8848C10.1255 21.793 12.1345 18.0345 15.0845 15.0845C18.0345 12.1345 21.793 10.1255 25.8848 9.31156C29.9766 8.49765 34.2179 8.91538 38.0722 10.5119C41.9266 12.1085 45.221 14.8121 47.5388 18.2809C49.8566 21.7498 51.0938 25.8281 51.0938 30C51.0876 35.5925 48.8632 40.9542 44.9087 44.9087C40.9542 48.8632 35.5925 51.0875 30 51.0938ZM19.2188 25.3125C19.2188 24.8489 19.3562 24.3958 19.6138 24.0104C19.8713 23.625 20.2373 23.3246 20.6656 23.1472C21.0939 22.9698 21.5651 22.9233 22.0198 23.0138C22.4744 23.1042 22.892 23.3274 23.2198 23.6552C23.5476 23.983 23.7708 24.4006 23.8612 24.8553C23.9517 25.3099 23.9052 25.7812 23.7279 26.2094C23.5505 26.6377 23.2501 27.0037 22.8646 27.2613C22.4792 27.5188 22.0261 27.6562 21.5625 27.6562C20.9409 27.6562 20.3448 27.4093 19.9052 26.9698C19.4657 26.5302 19.2188 25.9341 19.2188 25.3125ZM40.7813 25.3125C40.7813 25.7761 40.6438 26.2292 40.3863 26.6146C40.1287 27 39.7627 27.3004 39.3344 27.4778C38.9062 27.6552 38.4349 27.7017 37.9803 27.6112C37.5256 27.5208 37.108 27.2976 36.7802 26.9698C36.4524 26.642 36.2292 26.2244 36.1388 25.7697C36.0484 25.3151 36.0948 24.8438 36.2722 24.4156C36.4496 23.9873 36.75 23.6213 37.1354 23.3637C37.5208 23.1062 37.974 22.9688 38.4375 22.9688C39.0591 22.9688 39.6553 23.2157 40.0948 23.6552C40.5343 24.0948 40.7813 24.6909 40.7813 25.3125ZM40.5914 40.5469C40.7595 40.8683 40.797 41.2422 40.6959 41.5905C40.5949 41.9389 40.3631 42.2347 40.0491 42.4162C39.7351 42.5977 39.3631 42.6509 39.0108 42.5646C38.6585 42.4783 38.3532 42.2592 38.1586 41.9531C36.3211 38.7797 33.4242 37.0312 30 37.0312C26.5758 37.0312 23.6719 38.7797 21.8414 41.9531C21.7179 42.167 21.5403 42.3446 21.3263 42.4681C21.1124 42.5915 20.8697 42.6564 20.6227 42.6562C20.3755 42.6569 20.1327 42.5914 19.9195 42.4664C19.5976 42.2793 19.363 41.9721 19.2672 41.6123C19.1714 41.2524 19.2223 40.8693 19.4086 40.5469C21.7336 36.525 25.5938 34.2188 30 34.2188C34.4063 34.2188 38.2664 36.525 40.5914 40.5469Z" fill="#F3F3F3" fill-opacity="0.45"/>
</svg>