<svg xmlns="http://www.w3.org/2000/svg" width="60" height="60" viewBox="0 0 60 60" fill="none">
<path d="M40.8094 22.9005C40.9491 23.0271 41.0599 23.1775 41.1355 23.3432C41.2111 23.5088 41.25 23.6863 41.25 23.8656C41.25 24.0449 41.2111 24.2225 41.1355 24.3881C41.0599 24.5537 40.9491 24.7041 40.8094 24.8308L27.3122 37.0995C27.1728 37.2265 27.0074 37.3272 26.8252 37.3959C26.643 37.4646 26.4476 37.5 26.2504 37.5C26.0531 37.5 25.8578 37.4646 25.6756 37.3959C25.4934 37.3272 25.3279 37.2265 25.1886 37.0995L19.1898 31.6467C18.9082 31.3908 18.75 31.0436 18.75 30.6816C18.75 30.3196 18.9082 29.9724 19.1898 29.7165C19.4714 29.4605 19.8533 29.3167 20.2516 29.3167C20.6498 29.3167 21.0318 29.4605 21.3134 29.7165L26.2504 34.2068L38.6858 22.9005C38.8251 22.7735 38.9906 22.6728 39.1728 22.6041C39.355 22.5354 39.5504 22.5 39.7476 22.5C39.9449 22.5 40.1402 22.5354 40.3224 22.6041C40.5046 22.6728 40.6701 22.7735 40.8094 22.9005Z" fill="#0AA02B"/>
<circle cx="30" cy="30" r="22" stroke="#0AA02B"/>
</svg>