<svg width="32" height="32" viewBox="0 0 32 32" fill="none" xmlns="http://www.w3.org/2000/svg">
<path d="M21.3333 5.33594C24.2333 5.35194 25.804 5.48127 26.828 6.50527C28 7.67727 28 9.5626 28 13.3333V21.3333C28 25.1053 28 26.9906 26.828 28.1626C25.6573 29.3333 23.7707 29.3333 20 29.3333H12C8.22933 29.3333 6.34267 29.3333 5.172 28.1626C4 26.9893 4 25.1053 4 21.3333V13.3333C4 9.5626 4 7.67727 5.172 6.50527C6.196 5.48127 7.76667 5.35194 10.6667 5.33594" stroke="#F3F3F3" stroke-width="1.5"/>
<path d="M9.33203 19.334H19.9987M9.33203 24.0007H16.6654" stroke="#F3F3F3" stroke-width="1.5" stroke-linecap="round"/>
<path d="M10.668 4.66699C10.668 4.13656 10.8787 3.62785 11.2538 3.25278C11.6288 2.87771 12.1375 2.66699 12.668 2.66699H19.3346C19.8651 2.66699 20.3738 2.87771 20.7488 3.25278C21.1239 3.62785 21.3346 4.13656 21.3346 4.66699V6.00033C21.3346 6.53076 21.1239 7.03947 20.7488 7.41454C20.3738 7.78961 19.8651 8.00033 19.3346 8.00033H12.668C12.1375 8.00033 11.6288 7.78961 11.2538 7.41454C10.8787 7.03947 10.668 6.53076 10.668 6.00033V4.66699Z" stroke="#F3F3F3" stroke-width="1.5"/>
</svg>
