<svg width="43" height="42" viewBox="0 0 43 42" fill="none" xmlns="http://www.w3.org/2000/svg">
<path d="M21.4999 29.0005C9.97994 29.0005 7.93994 17.5205 7.57994 8.41247C7.47794 5.88047 7.42795 4.61247 8.37995 3.44247C9.32995 2.27047 10.4679 2.07847 12.7459 1.69447C15.6396 1.22022 18.5677 0.988086 21.4999 1.00047C25.0679 1.00047 28.0059 1.31447 30.2539 1.69447C32.5319 2.07847 33.6699 2.27047 34.6219 3.44247C35.5739 4.61447 35.5219 5.88047 35.4219 8.41247C35.0619 17.5185 33.0219 29.0005 21.5019 29.0005H21.4999Z" stroke="#790E8D" stroke-width="1.5"/>
<path d="M21.5 29V35" stroke="#790E8D" stroke-width="1.5" stroke-linecap="round"/>
<path d="M28.5 41H14.5L15.18 37.608C15.2706 37.1548 15.5154 36.7469 15.8727 36.4538C16.23 36.1606 16.6778 36.0003 17.14 36H25.86C26.3222 36.0003 26.77 36.1606 27.1273 36.4538C27.4846 36.7469 27.7294 37.1548 27.82 37.608L28.5 41Z" stroke="#790E8D" stroke-width="1.5" stroke-linecap="round" stroke-linejoin="round"/>
<path d="M35.5 7L37.398 7.632C39.378 8.292 40.368 8.622 40.934 9.408C41.5 10.194 41.5 11.238 41.5 13.324V13.47C41.5 15.19 41.5 16.052 41.086 16.756C40.672 17.46 39.918 17.878 38.414 18.716L32.5 22M7.5 7L5.602 7.632C3.622 8.292 2.632 8.622 2.066 9.408C1.5 10.194 1.5 11.24 1.5 13.324V13.47C1.5 15.19 1.5 16.052 1.914 16.756C2.328 17.46 3.082 17.878 4.586 18.716L10.5 22M19.792 9.046C20.552 7.68 20.932 7 21.5 7C22.068 7 22.448 7.68 23.208 9.046L23.404 9.398C23.62 9.786 23.728 9.978 23.896 10.106C24.066 10.234 24.276 10.282 24.696 10.376L25.076 10.464C26.552 10.798 27.29 10.964 27.466 11.528C27.642 12.094 27.138 12.682 26.132 13.858L25.872 14.162C25.586 14.496 25.442 14.662 25.378 14.87C25.314 15.078 25.336 15.3 25.378 15.746L25.418 16.152C25.57 17.722 25.646 18.508 25.188 18.856C24.728 19.204 24.036 18.886 22.654 18.25L22.298 18.086C21.904 17.906 21.708 17.816 21.5 17.816C21.292 17.816 21.096 17.906 20.702 18.086L20.346 18.25C18.964 18.888 18.272 19.204 17.812 18.856C17.352 18.508 17.43 17.722 17.582 16.152L17.622 15.746C17.664 15.3 17.686 15.078 17.622 14.87C17.558 14.664 17.414 14.496 17.128 14.162L16.868 13.858C15.862 12.682 15.358 12.094 15.534 11.528C15.71 10.964 16.448 10.798 17.924 10.464L18.304 10.376C18.724 10.282 18.934 10.236 19.104 10.106C19.272 9.978 19.38 9.786 19.596 9.398L19.792 9.046Z" stroke="#790E8D" stroke-width="1.5"/>
<path d="M33.5 41H9.5" stroke="#790E8D" stroke-width="1.5" stroke-linecap="round"/>
</svg>
