<svg width="48" height="48" viewBox="0 0 48 48" fill="none" xmlns="http://www.w3.org/2000/svg">
<path d="M23.9999 32.0005C12.4799 32.0005 10.4399 20.5205 10.0799 11.4125C9.97794 8.88047 9.92795 7.61247 10.8799 6.44247C11.8299 5.27047 12.9679 5.07847 15.2459 4.69447C18.1396 4.22022 21.0677 3.98809 23.9999 4.00047C27.5679 4.00047 30.5059 4.31447 32.7539 4.69447C35.0319 5.07847 36.1699 5.27047 37.1219 6.44247C38.0739 7.61447 38.0219 8.88047 37.9219 11.4125C37.5619 20.5185 35.5219 32.0005 24.0019 32.0005H23.9999Z" stroke="#790E8D" stroke-width="1.5"/>
<path d="M22 16L25 13V21" stroke="#790E8D" stroke-width="1.5" stroke-linecap="round" stroke-linejoin="round"/>
<path d="M38 10L39.898 10.632C41.878 11.292 42.868 11.622 43.434 12.408C44 13.194 44 14.238 44 16.324V16.47C44 18.19 44 19.052 43.586 19.756C43.172 20.46 42.418 20.878 40.914 21.716L35 25M10 10L8.102 10.632C6.122 11.292 5.132 11.622 4.566 12.408C4 13.194 4 14.24 4 16.324V16.47C4 18.19 4 19.052 4.414 19.756C4.828 20.46 5.582 20.878 7.086 21.716L13 25" stroke="#790E8D" stroke-width="1.5"/>
<path d="M24 32V38" stroke="#790E8D" stroke-width="1.5" stroke-linecap="round"/>
<path d="M31 44H17L17.68 40.608C17.7706 40.1548 18.0154 39.7469 18.3727 39.4538C18.73 39.1606 19.1778 39.0003 19.64 39H28.36C28.8222 39.0003 29.27 39.1606 29.6273 39.4538C29.9846 39.7469 30.2294 40.1548 30.32 40.608L31 44Z" stroke="#790E8D" stroke-width="1.5" stroke-linecap="round" stroke-linejoin="round"/>
<path d="M36 44H12" stroke="#790E8D" stroke-width="1.5" stroke-linecap="round"/>
</svg>
