<svg width="48" height="48" viewBox="0 0 48 48" fill="none" xmlns="http://www.w3.org/2000/svg">
<path d="M23.9999 32.0005C12.4799 32.0005 10.4399 20.5205 10.0799 11.4125C9.97794 8.88047 9.92795 7.61247 10.8799 6.44247C11.8299 5.27047 12.9679 5.07847 15.2459 4.69447C18.1396 4.22022 21.0677 3.98809 23.9999 4.00047C27.5679 4.00047 30.5059 4.31447 32.7539 4.69447C35.0319 5.07847 36.1699 5.27047 37.1219 6.44247C38.0739 7.61447 38.0219 8.88047 37.9219 11.4125C37.5619 20.5185 35.5219 32.0005 24.0019 32.0005H23.9999Z" stroke="#790E8D" stroke-width="1.5"/>
<path d="M38 10L39.898 10.632C41.878 11.292 42.868 11.622 43.434 12.408C44 13.194 44 14.238 44 16.324V16.47C44 18.19 44 19.052 43.586 19.756C43.172 20.46 42.418 20.878 40.914 21.716L35 25M10 10L8.102 10.632C6.122 11.292 5.132 11.622 4.566 12.408C4 13.194 4 14.24 4 16.324V16.47C4 18.19 4 19.052 4.414 19.756C4.828 20.46 5.582 20.878 7.086 21.716L13 25" stroke="#790E8D" stroke-width="1.5"/>
<path d="M24 32V38" stroke="#790E8D" stroke-width="1.5" stroke-linecap="round"/>
<path d="M31 44H17L17.68 40.608C17.7706 40.1548 18.0154 39.7469 18.3727 39.4538C18.73 39.1606 19.1778 39.0003 19.64 39H28.36C28.8222 39.0003 29.27 39.1606 29.6273 39.4538C29.9846 39.7469 30.2294 40.1548 30.32 40.608L31 44Z" stroke="#790E8D" stroke-width="1.5" stroke-linecap="round" stroke-linejoin="round"/>
<path d="M36 44H12" stroke="#790E8D" stroke-width="1.5" stroke-linecap="round"/>
<path d="M20.7182 21C20.7182 20.608 20.7509 20.2487 20.8162 19.922C20.8815 19.586 20.9935 19.2687 21.1522 18.97C21.3202 18.6713 21.5489 18.3913 21.8382 18.13C22.1369 17.8593 22.5149 17.6027 22.9722 17.36C23.2989 17.1733 23.6069 17.01 23.8962 16.87C24.1855 16.7207 24.4422 16.576 24.6662 16.436C24.8902 16.2867 25.0629 16.128 25.1842 15.96C25.3149 15.792 25.3802 15.6007 25.3802 15.386C25.3802 15.1807 25.3242 14.9893 25.2122 14.812C25.1002 14.6347 24.9322 14.4947 24.7082 14.392C24.4842 14.28 24.2135 14.224 23.8962 14.224C23.6442 14.224 23.4109 14.2567 23.1962 14.322C22.9909 14.3873 22.7995 14.476 22.6222 14.588C22.4542 14.6907 22.3002 14.8073 22.1602 14.938C22.0202 15.0593 21.8989 15.1807 21.7962 15.302L20.8302 14.196C20.9235 14.084 21.0682 13.958 21.2642 13.818C21.4695 13.6687 21.7122 13.524 21.9922 13.384C22.2815 13.2347 22.6082 13.1133 22.9722 13.02C23.3362 12.9173 23.7329 12.866 24.1622 12.866C24.7689 12.866 25.2869 12.9687 25.7162 13.174C26.1455 13.37 26.4722 13.6453 26.6962 14C26.9295 14.3453 27.0462 14.7373 27.0462 15.176C27.0462 15.5213 26.9762 15.8247 26.8362 16.086C26.7055 16.3473 26.5329 16.5807 26.3182 16.786C26.1035 16.982 25.8749 17.1547 25.6322 17.304C25.3989 17.444 25.1795 17.57 24.9742 17.682C24.6102 17.8593 24.2929 18.0227 24.0222 18.172C23.7609 18.3213 23.5369 18.4707 23.3502 18.62C23.1635 18.76 23.0095 18.9093 22.8882 19.068C22.7669 19.2173 22.6642 19.3993 22.5802 19.614H27.2002V21H20.7182Z" fill="#790E8D"/>
</svg>
