<svg width="49" height="48" viewBox="0 0 49 48" fill="none" xmlns="http://www.w3.org/2000/svg">
<path d="M24.4999 32.0005C12.9799 32.0005 10.9399 20.5205 10.5799 11.4125C10.4779 8.88047 10.4279 7.61247 11.3799 6.44247C12.3299 5.27047 13.4679 5.07847 15.7459 4.69447C18.6396 4.22022 21.5677 3.98809 24.4999 4.00047C28.0679 4.00047 31.0059 4.31447 33.2539 4.69447C35.5319 5.07847 36.6699 5.27047 37.6219 6.44247C38.5739 7.61447 38.5219 8.88047 38.4219 11.4125C38.0619 20.5185 36.0219 32.0005 24.5019 32.0005H24.4999Z" stroke="#790E8D" stroke-width="1.5"/>
<path d="M38.5 10L40.398 10.632C42.378 11.292 43.368 11.622 43.934 12.408C44.5 13.194 44.5 14.238 44.5 16.324V16.47C44.5 18.19 44.5 19.052 44.086 19.756C43.672 20.46 42.918 20.878 41.414 21.716L35.5 25M10.5 10L8.602 10.632C6.622 11.292 5.632 11.622 5.066 12.408C4.5 13.194 4.5 14.24 4.5 16.324V16.47C4.5 18.19 4.5 19.052 4.914 19.756C5.328 20.46 6.082 20.878 7.586 21.716L13.5 25" stroke="#790E8D" stroke-width="1.5"/>
<path d="M24.5 32V38" stroke="#790E8D" stroke-width="1.5" stroke-linecap="round"/>
<path d="M31.5 44H17.5L18.18 40.608C18.2706 40.1548 18.5154 39.7469 18.8727 39.4538C19.23 39.1606 19.6778 39.0003 20.14 39H28.86C29.3222 39.0003 29.77 39.1606 30.1273 39.4538C30.4846 39.7469 30.7294 40.1548 30.82 40.608L31.5 44Z" stroke="#790E8D" stroke-width="1.5" stroke-linecap="round" stroke-linejoin="round"/>
<path d="M36.5 44H12.5" stroke="#790E8D" stroke-width="1.5" stroke-linecap="round"/>
<path d="M25.135 17.168C25.471 17.224 25.763 17.352 26.011 17.552C26.267 17.744 26.463 17.992 26.599 18.296C26.735 18.592 26.803 18.928 26.803 19.304C26.803 19.8 26.679 20.232 26.431 20.6C26.191 20.968 25.847 21.252 25.399 21.452C24.951 21.66 24.423 21.764 23.815 21.764C23.207 21.764 22.671 21.656 22.207 21.44C21.743 21.232 21.371 20.928 21.091 20.528L21.895 19.616C22.087 19.904 22.335 20.132 22.639 20.3C22.943 20.476 23.327 20.564 23.791 20.564C24.311 20.564 24.715 20.452 25.003 20.228C25.291 20.004 25.435 19.668 25.435 19.22C25.435 18.756 25.275 18.392 24.955 18.128C24.643 17.864 24.171 17.732 23.539 17.732H23.215V16.7H23.575C24.111 16.7 24.523 16.576 24.811 16.328C25.099 16.072 25.243 15.752 25.243 15.368C25.243 15.112 25.183 14.904 25.063 14.744C24.951 14.576 24.791 14.452 24.583 14.372C24.375 14.292 24.135 14.252 23.863 14.252C23.455 14.252 23.095 14.34 22.783 14.516C22.471 14.692 22.223 14.944 22.039 15.272L21.211 14.372C21.371 14.116 21.591 13.892 21.871 13.7C22.151 13.508 22.471 13.36 22.831 13.256C23.199 13.144 23.587 13.088 23.995 13.088C24.523 13.088 24.987 13.176 25.387 13.352C25.787 13.528 26.095 13.776 26.311 14.096C26.535 14.416 26.647 14.792 26.647 15.224C26.647 15.536 26.587 15.832 26.467 16.112C26.347 16.384 26.171 16.616 25.939 16.808C25.707 16.992 25.439 17.112 25.135 17.168Z" fill="#790E8D"/>
</svg>
